Coordinates
version=1
nRows=16
nColumns=40
inDegrees=yes

Units are S.I. units (second, meters, Newtons, ...)
Angles are in degrees.

endheader
time	pelvis_tilt	pelvis_list	pelvis_rotation	pelvis_tx	pelvis_ty	pelvis_tz	hip_flexion_r	hip_adduction_r	hip_rotation_r	knee_angle_r	knee_angle_r_beta	ankle_angle_r	subtalar_angle_r	mtp_angle_r	hip_flexion_l	hip_adduction_l	hip_rotation_l	knee_angle_l	knee_angle_l_beta	ankle_angle_l	subtalar_angle_l	mtp_angle_l	lumbar_extension	lumbar_bending	lumbar_rotation	arm_flex_r	arm_add_r	arm_rot_r	elbow_flex_r	pro_sup_r	wrist_flex_r	wrist_dev_r	arm_flex_l	arm_add_l	arm_rot_l	elbow_flex_l	pro_sup_l	wrist_flex_l	wrist_dev_l
      7.14250000	     -1.53423978	     -5.82765125	      0.05946995	      0.85339158	      0.92484217	      0.47072496	     18.48351333	      3.41662553	    -13.46642383	     19.24046624	     19.24046624	      4.43021023	     -6.20980670	     -3.93829639	      1.26416420	     -9.90743847	     -7.79049938	     39.96698711	     39.96698711	     10.37601510	    -11.87770497	    -16.02851105	     -7.42278297	      8.25747810	      1.97204213	      2.87904530	    -13.64013508	     -9.47589300	     41.71717827	     45.61772616	      0.00000000	      0.00000000	     11.00942578	     -8.53324740	      4.87120656	     45.17195894	     46.19121312	      0.00000000	      0.00000000
      7.15457143	     -1.49117256	     -5.94864869	      0.38155770	      0.85402965	      0.92559666	      0.47241001	     17.74311746	      3.58509144	    -13.96710816	     18.99962903	     18.99962903	      4.90021527	     -5.70814718	     -4.14569283	      3.10862522	    -10.55078814	     -7.06313870	     43.78833484	     43.78833484	      8.53078122	    -13.06365443	    -15.51820407	     -7.39192101	      8.33001916	      1.87775847	      4.19659462	    -13.98752879	     -9.52928635	     42.82967681	     45.58858232	      0.00000000	      0.00000000	      9.91508562	     -8.46091259	      5.06317298	     43.43911731	     46.14882958	      0.00000000	      0.00000000
      7.16664286	     -1.40173704	     -6.01445570	      0.69884289	      0.85440493	      0.92628080	      0.47389089	     17.02635166	      3.61168348	    -14.72973791	     18.91837386	     18.91837386	      5.46459465	     -4.74097453	     -4.48318781	      5.03345946	    -10.99006435	     -6.16255462	     47.67486113	     47.67486113	      7.54993162	    -13.90655343	    -12.44905802	     -7.46886505	      8.36333813	      2.34744409	      4.77804658	    -14.74030026	     -9.12806284	     45.27682357	     45.49134934	      0.00000000	      0.00000000	      9.95416782	     -7.88681638	      5.24186979	     39.45148675	     46.11039052	      0.00000000	      0.00000000
      7.17871429	     -1.31201081	     -6.22454388	      0.96472345	      0.85458625	      0.92685944	      0.47554696	     16.26131773	      3.91844842	    -15.13280167	     18.67027111	     18.67027111	      5.85653492	     -4.39004572	     -4.62704220	      6.90284954	    -11.66032532	     -5.51615683	     51.17464314	     51.17464314	      5.84796892	    -14.99460740	    -11.60115430	     -7.60674795	      8.51601447	      2.52204622	      6.24259425	    -15.20477745	     -9.30140399	     46.22591343	     45.47477634	      0.00000000	      0.00000000	      8.80469068	     -7.86193698	      5.36083010	     38.51483867	     46.07741245	      0.00000000	      0.00000000
      7.19078571	     -1.39149685	     -6.20511995	      1.28619913	      0.85443849	      0.92723770	      0.47677911	     15.71303788	      3.84508162	    -15.95329613	     18.50293002	     18.50293002	      6.35386067	     -3.29650527	     -4.96331105	      9.23952749	    -11.80389444	     -4.48503936	     54.96304926	     54.96304926	      6.87262544	    -14.97534863	     -4.11448665	     -7.51913728	      8.43580650	      2.72467659	      6.77560982	    -15.82023592	     -8.95087035	     49.29401250	     45.36701696	      0.00000000	      0.00000000	      8.52121532	     -7.56324627	      5.51374848	     35.00134121	     46.03675771	      0.00000000	      0.00000000
      7.20285714	     -1.43657756	     -6.27884678	      1.59354051	      0.85407699	      0.92763438	      0.47809089	     15.11389350	      3.95911579	    -16.50803834	     18.24609968	     18.24609968	      6.74347104	     -2.69702185	     -5.16700173	     11.34325965	    -12.06634235	     -3.64898654	     57.95547856	     57.95547856	      6.47175797	    -15.86027634	     -0.88214130	     -7.53277126	      8.42340379	      2.70025962	      8.10842546	    -16.17233943	     -9.04115555	     51.04486317	     45.32745488	      0.00000000	      0.00000000	      7.50651230	     -7.57232658	      5.62125440	     33.46672762	     45.99759429	      0.00000000	      0.00000000
      7.21492857	     -1.47957912	     -6.44307873	      1.86445288	      0.85353929	      0.92806699	      0.47947248	     14.47410877	      4.26085900	    -16.79105256	     17.83827230	     17.83827230	      7.02806738	     -2.47030560	     -5.20145811	     13.33582925	    -12.44918275	     -2.96854751	     60.37777492	     60.37777492	      5.61189932	    -16.90449153	      0.09847414	     -7.57906599	      8.47494739	      2.91123347	      9.52893604	    -16.60106488	     -9.20604270	     52.07969367	     45.30781477	      0.00000000	      0.00000000	      6.41311955	     -7.60759684	      5.69525755	     32.63695808	     45.96837949	      0.00000000	      0.00000000
      7.22700000	     -1.55025410	     -6.40396173	      2.14626309	      0.85275365	      0.92859373	      0.48055647	     13.90037043	      4.27934868	    -17.22037220	     17.50758723	     17.50758723	      7.30065786	     -1.94070785	     -5.48116044	     15.51643593	    -12.41180887	     -2.15679210	     62.76119208	     62.76119208	      7.19558356	    -17.08411558	      6.61417854	     -7.65813832	      8.35320367	      3.21702180	     10.28458916	    -17.26719083	     -8.81810454	     55.10652957	     45.20885757	      0.00000000	      0.00000000	      5.88533396	     -7.52680035	      5.78155102	     30.39532974	     45.93858943	      0.00000000	      0.00000000
      7.23907143	     -1.64486780	     -6.49025945	      2.46428800	      0.85182182	      0.92917180	      0.48171103	     13.26728025	      4.53926226	    -17.39329285	     16.93220799	     16.93220799	      7.49011463	     -1.88760049	     -5.41758765	     17.48122105	    -12.58884124	     -1.52965662	     64.21635054	     64.21635054	      6.93599425	    -17.85853622	      7.21346983	     -7.68829357	      8.32734736	      3.23579762	     11.84121187	    -17.48294452	     -9.04910732	     56.30785411	     45.18794532	      0.00000000	      0.00000000	      4.74304573	     -7.66979216	      5.83229177	     29.64585253	     45.90989976	      0.00000000	      0.00000000
      7.25114286	     -1.69404778	     -6.43071466	      2.75324332	      0.85072645	      0.92991062	      0.48271170	     12.59886010	      4.64767299	    -17.45222518	     16.36906215	     16.36906215	      7.62156964	     -1.91280431	     -5.63670549	     19.41446803	    -12.48771048	     -0.91657869	     65.36433976	     65.36433976	      8.16532638	    -18.13500200	     10.92506110	     -7.85045249	      8.12564784	      3.45278455	     12.86532244	    -17.99262619	     -8.97235952	     58.92320071	     45.12212612	      0.00000000	      0.00000000	      3.91084037	     -7.74178203	      5.82499418	     28.53333484	     45.88940261	      0.00000000	      0.00000000
      7.26321429	     -1.75816042	     -6.38777778	      3.09130294	      0.84951340	      0.93074143	      0.48360047	     11.88214983	      4.80351905	    -17.50372612	     15.66017693	     15.66017693	      7.75399811	     -1.95449221	     -5.57470892	     21.19419835	    -12.39887447	     -0.39732608	     65.77197931	     65.77197931	      8.55402366	    -18.50404449	     11.63815348	     -7.97482719	      7.94485565	      3.37634234	     14.45185317	    -18.11290576	     -9.15938347	     60.47847658	     45.09191530	      0.00000000	      0.00000000	      2.82174238	     -7.92201098	      5.85812203	     27.82430888	     45.86256812	      0.00000000	      0.00000000
      7.27528571	     -1.91075084	     -6.33882949	      3.46913600	      0.84811057	      0.93148530	      0.48429782	     11.25196407	      4.94596983	    -17.56684988	     14.89989488	     14.89989488	      7.85847267	     -2.02780993	     -5.47692985	     23.01484925	    -12.19500859	      0.15412315	     65.67082516	     65.67082516	      9.04703832	    -18.78211299	     12.21805595	     -8.00481663	      7.76085219	      3.35475579	     15.92281040	    -18.29848686	     -9.29865900	     61.97011835	     45.05793795	      0.00000000	      0.00000000	      1.80288161	     -8.07877340	      5.87396519	     27.27073821	     45.84102211	      0.00000000	      0.00000000
      7.28735714	     -1.99414853	     -6.18001884	      3.83925323	      0.84662558	      0.93240210	      0.48480374	     10.53472741	      4.98021454	    -17.53644669	     14.12214767	     14.12214767	      7.94522630	     -2.17570698	     -5.38341281	     24.59082867	    -11.80389285	      0.60213868	     64.97417430	     64.97417430	      9.69873689	    -18.92968464	     12.99513845	     -8.15986315	      7.46145164	      3.29188882	     17.41485722	    -18.45412038	     -9.38271694	     63.75839267	     45.01220533	      0.00000000	      0.00000000	      0.79870191	     -8.26357050	      5.86948988	     26.78579238	     45.82270194	      0.00000000	      0.00000000
      7.29942857	     -2.06749932	     -6.03535468	      4.22697961	      0.84504849	      0.93326197	      0.48515886	      9.80774028	      5.03318707	    -17.47548887	     13.32190792	     13.32190792	      7.96950300	     -2.41165583	     -5.35865899	     26.05339858	    -11.33611426	      1.06041515	     63.80232992	     63.80232992	     10.56211524	    -18.98461457	     14.23137550	     -8.36834524	      7.20421309	      3.21999102	     18.73583194	    -18.67956347	     -9.37113213	     66.12302956	     44.94694115	      0.00000000	      0.00000000	     -0.20354096	     -8.44315903	      5.81488432	     26.45032264	     45.81131431	      0.00000000	      0.00000000
      7.31150000	     -2.20419789	     -5.81162474	      4.62413219	      0.84338411	      0.93399335	      0.48527262	      9.17930653	      4.96239174	    -17.47028976	     12.59931909	     12.59931909	      8.06539944	     -2.59435297	     -5.33147177	     27.39612322	    -10.72482123	      1.40968082	     62.06474384	     62.06474384	     11.18344468	    -19.03331393	     15.03513358	     -8.49024187	      6.85641196	      3.27165928	     20.03444961	    -18.92388892	     -9.43073924	     68.09776056	     44.89649065	      0.00000000	      0.00000000	     -1.09274046	     -8.60002973	      5.76420672	     26.19298750	     45.80139077	      0.00000000	      0.00000000
      7.32357143	     -2.37320758	     -5.62595306	      4.99960342	      0.84158782	      0.93449646	      0.48529971	      8.64345791	      4.91347564	    -17.42973496	     11.94890202	     11.94890202	      8.03306630	     -2.87987166	     -5.56417922	     28.65150048	    -10.06185283	      1.80293876	     59.93210650	     59.93210650	     12.07046066	    -19.02371016	     16.53102162	     -8.66565093	      6.56878011	      3.61690584	     20.76622337	    -19.60967296	     -9.47722705	     71.30300686	     44.82462889	      0.00000000	      0.00000000	     -1.82734209	     -8.70030341	      5.57397872	     26.33529806	     45.81193327	      0.00000000	      0.00000000
